PathFileType	4	(X/Y/Z)	Patient4_TMGait_0pt5_01_left_43.trc.trc
DataRate	CameraRate	NumFrames	NumMarkers	Units	OrigDataRate	OrigDataStartFrame	OrigNumFrames
76.923076923077	76.923076923077	6	33	mm	76.923076923077	1	       141
Frame#	Time	L.ASIS			Sacral			L.Shoulder			Chest			R.Shoulder			Neck			R.ASIS			R.Thigh.Superior			R.Thigh.Lateral			R.Thigh.Inferior			R.Patella			L.Thigh.Superior			L.Thigh.Lateral			L.Thigh.Inferior			L.Patella			L.Shank.Superior			L.Shank.Lateral			L.Shank.Inferior			R.Shank.Superior			R.Shank.Lateral			R.Shank.Inferior			R.Heel			R.Midfoot.Superior			R.Midfoot.Lateral			R.Toe			L.Heel			L.Midfoot.Lateral			L.Midfoot.Superior			L.Toe			L.Elbow			L.Wrist			R.Elbow			R.Wrist			
		X1	Y1	Z1	X2	Y2	Z2	X3	Y3	Z3	X4	Y4	Z4	X5	Y5	Z5	X6	Y6	Z6	X7	Y7	Z7	X8	Y8	Z8	X9	Y9	Z9	X10	Y10	Z10	X11	Y11	Z11	X12	Y12	Z12	X13	Y13	Z13	X14	Y14	Z14	X15	Y15	Z15	X16	Y16	Z16	X17	Y17	Z17	X18	Y18	Z18	X19	Y19	Z19	X20	Y20	Z20	X21	Y21	Z21	X22	Y22	Z22	X23	Y23	Z23	X24	Y24	Z24	X25	Y25	Z25	X26	Y26	Z26	X27	Y27	Z27	X28	Y28	Z28	X29	Y29	Z29	X30	Y30	Z30	X31	Y31	Z31	X32	Y32	Z32	X33	Y33	Z33	

1	57.250000000000	849.909867454496	962.825484275042	320.556635657511	638.344049962597	1007.731958507344	478.752120369556	803.271866274680	1440.887780337888	305.728949000989	912.951658999735	1366.969796081258	460.657128620072	835.770122172226	1432.793871558652	641.213739369822	808.935168808750	1497.938149367649	459.498720347454	864.653804679378	942.086628848368	592.732613704719	909.443686871172	744.028414420962	571.192091466780	825.383741443136	635.742986007324	624.701432238062	907.853073438848	584.235429412413	548.887640871512	907.933455942813	496.766580561817	553.637934193065	919.471038654178	765.554424665827	341.906537707525	856.653148172285	641.486583700261	270.552905787398	957.913601019285	571.287805321768	323.446037429095	962.430590003260	481.210403038325	318.742595432557	894.358425074888	416.853904225045	317.542552492070	750.223612705953	375.596228859499	276.141018124117	737.192108578142	249.553299558173	336.544968617413	882.924334305900	408.099129345982	558.384736491228	811.246814312899	301.189609292969	611.842041060898	862.367562362529	208.955109904929	552.193426545174	733.062766539437	42.915205886992	511.159712909335	904.114196127191	97.391462136244	554.376004561916	813.928289796212	36.297235845771	589.295016448637	1022.043825752443	44.565195447846	585.612675796717	544.993665152514	185.256046723135	385.321149192516	598.685789798694	146.360056684075	298.948721432403	705.029275103135	152.819469447612	314.953906803986	781.376389314481	44.009126237663	274.391725119097	754.831836812412	1087.661467861135	189.857279359578	874.240546034745	853.539051163234	171.830004036955	836.343788541484	1081.731171860196	754.709842943960	970.738232707891	856.938618227431	753.470457245948	
2	57.263000000000	847.917334547842	963.689384853457	320.991405875789	637.443350247990	1008.651622784991	480.437761378613	803.059962755056	1441.364417262113	306.848550909042	913.250511393350	1367.039278978492	461.148689671475	837.449872938724	1433.156222019177	642.153028084396	809.652610711815	1498.297500253455	460.591676593553	864.311663075748	942.386794093939	593.501683635056	906.460262094801	743.390829763163	570.807032623845	821.592577957128	635.795521460550	624.858002324368	902.763731056357	583.568197647729	548.433271183081	901.987322586290	496.453354676937	553.089805928184	919.723763259710	768.718757518267	343.099702972920	859.328531237958	643.904217915258	271.442202876191	961.173585185420	575.168378394463	324.831249803673	967.633620497801	485.928093182966	320.178583467501	902.520729749579	419.794670100520	318.269537068613	761.157412199808	372.112144481923	275.784053547351	754.033546719250	245.475044955339	335.576754675122	876.912526386002	407.919674436020	558.031843270528	805.146013211780	301.200371941804	611.788933884569	855.916492075217	208.875717595609	551.911217465392	726.039728477007	42.846639290705	511.170671174885	897.222817422413	97.392681668719	554.425350046933	806.943053942929	36.283093791908	589.282541449284	1015.079778605351	44.623977095383	585.718324048294	565.658263814959	171.841446162707	383.020576950920	621.371325110932	136.211337556452	296.752538090086	726.854312895289	147.793666467943	313.392379266186	808.381836680624	43.416645958904	272.791274681321	748.213216259015	1089.056416421953	191.990129721997	858.099909980944	851.010630734538	174.338737438063	848.133320432428	1082.983880830804	756.147532881911	993.991058462153	866.952417515616	751.830932439363	
3	57.276000000000	845.938435811929	964.505946163286	321.405996593667	636.529036568463	1009.553207211506	482.081572069560	802.844128725821	1441.799069933712	307.927961188814	913.555912610184	1367.069764361899	461.592663689883	839.146496954576	1433.487131095282	643.046069458151	810.367575067578	1498.622116522051	461.638845844225	863.931243257423	942.635659806092	594.210870567580	903.481262438224	742.747010187429	570.362048486788	817.862263376242	635.838099537871	625.008683995914	897.713038245169	582.902346717463	547.945227756659	896.100525327872	496.129528120786	552.532465236592	919.894248999968	771.745700946566	344.303885756626	861.821852965592	646.212536563137	272.348399617968	964.140081206166	578.856697758374	326.329834804286	972.525255367993	490.519967246796	321.707078331790	910.443176018841	422.665111670163	319.037083665337	772.020328487637	368.483667869257	275.416714721024	770.940634937603	241.330842572284	334.591929367754	870.956741461260	407.727519606080	557.666568945643	799.114209967191	301.199884564999	611.741877310633	849.507556018205	208.782392334705	551.621639144351	719.076628045101	42.770096877394	511.179016269143	890.367206129117	97.386888120083	554.462602631136	800.007529273729	36.267237662988	589.271750504611	1008.164553080932	44.683001323089	585.817318054999	586.629606159989	158.231834762094	380.654513069749	644.340459353695	125.974081522239	294.498555564319	748.860268839663	142.753323434074	311.804466894149	835.593014393908	42.978240328244	271.168152498811	741.646209892255	1090.414439799580	194.109721844216	842.111140399716	848.573309436031	176.789520811206	859.742559460469	1084.274848085848	757.562853828093	1016.941167677518	877.112884017131	750.081603032263	
4	57.289000000000	843.979270068450	965.227320809924	321.774852285263	635.592767755870	1010.417187214702	483.650589968648	802.626076042141	1442.151091050248	308.918469755130	913.875951108753	1367.023562587928	461.936750448983	840.873492329866	1433.757848966192	643.838050390710	811.082091891849	1498.879829515385	462.584535047615	863.487771888380	942.791077058822	594.804639676403	900.531187816739	742.092871973580	569.815060278580	814.262461902236	635.858847233059	625.144231253502	892.761554385113	582.239260519845	547.399757586851	890.350894595960	495.781611426970	551.959383663160	919.873436734517	774.494142619530	345.516178365967	863.954240304737	648.313659685601	273.251707855940	966.540208711814	582.181445096627	328.005278287086	976.814348310947	494.874735294720	323.376230096160	917.887414584502	425.420685024848	319.864261064542	782.746951928432	364.640476330111	275.031394329754	787.930282069003	237.161408135343	333.606228542153	865.123714663304	407.506985363120	557.279056276269	793.221127635559	301.178312570436	611.703267586561	843.183103189174	208.661145824296	551.319353701326	712.217198908407	42.682173318935	511.182160749836	883.573254971641	97.369086436716	554.477686669191	793.159035725786	36.248681332987	589.264727114110	1001.334540169839	44.741431314804	585.903447671068	608.150439350801	144.429920389587	378.215037695485	667.819856241177	115.708477333274	292.207457399294	771.158738025279	137.799766895892	310.227658908713	863.105664070817	42.932861108635	269.619326891760	735.206719787002	1091.697915824491	196.189083363606	826.455123374916	846.316634598754	179.119686027348	870.986243954077	1085.631919369055	758.903726956999	1039.231975215409	887.606390082398	748.079667989892	
5	57.302000000000	842.039554284092	965.814489161650	322.076277275894	634.628433177041	1011.229121491881	485.123741277154	802.409801260014	1442.387899049748	309.777884139517	914.219085038477	1366.869058798448	462.136514702284	842.643902214836	1433.945379835849	644.481200419502	811.801497989197	1499.044855131471	463.379853490462	862.968368868032	942.823809996527	595.244266900474	897.634059262174	741.423269413493	569.140515256827	810.846789887803	635.846775066453	625.256250005873	887.958195187520	581.578003067826	546.781263903009	884.797927194202	495.396167459632	551.364628459401	919.559009805332	776.845859542526	346.730960118597	865.573005981139	650.130616523284	274.123154531840	968.149312853215	585.009612403482	329.894826675803	980.271998129897	498.912599768571	325.212327090691	924.669225171744	428.043588483546	320.763521407688	793.319941083490	360.548503946939	274.616105690688	805.041808023059	233.047529761933	332.648772933840	859.460586918254	407.243270164190	556.861913956005	787.511735618259	301.127824568770	611.674636262431	836.962529747227	208.499396777731	550.999929954560	705.474900151327	42.581254088429	511.181872263847	876.842035368404	97.335723356470	554.462951533490	786.406687539175	36.226573183068	589.263002374724	994.598012239062	44.798145327385	585.972546385793	630.462709224147	130.507002678368	375.710261648853	692.048403897252	105.521201622301	289.926080705653	793.877508007985	133.071749385310	308.726917314052	891.025943014281	43.535547636637	268.294105421001	728.953586257649	1092.877378766446	198.206667271777	811.257605737841	844.308180327449	181.282590582095	881.731383144667	1087.074122532319	760.116969861611	1060.594007036923	898.629800628554	745.687632296939	
6	57.315000000000	840.115088528228	966.240534652641	322.293670169944	633.635187283381	1011.979602381437	486.492144858134	802.201749841705	1442.488208901446	310.472770090034	914.592581417899	1366.584832118578	462.159208070420	844.465469145499	1434.035164175533	644.938072179885	812.532789282169	1499.100629814110	463.985699988662	862.373795724070	942.720460699053	595.510691214739	894.817010921986	740.733757824796	568.334053119240	807.653614205564	635.792850066538	625.337670167681	883.345037909405	580.916546919129	546.085537891066	879.487505825486	494.961671151026	550.744734399426	918.866174238888	778.715629079487	347.936610334756	866.567640450961	651.614158919907	274.923755625275	968.817381596966	587.259284102856	331.997289553727	982.754022998927	502.588540281599	327.209818728952	930.667720233592	430.541441096035	321.735852752833	803.750657753690	356.226742200446	274.157919034006	822.295017767833	229.114426321207	331.762643608908	854.000753283987	406.924345159031	556.412103608446	782.011002182179	301.043815824802	611.656056303407	830.850668137805	208.287654832727	550.661087667293	698.841210062431	42.468308641681	511.183136595270	870.160846986609	97.285365964856	554.414371995954	779.741223723427	36.200627421024	589.267566125396	987.944891134437	44.851691832618	586.022674292214	653.729264557557	116.633467464793	373.173532538923	717.195592739372	95.580785621361	287.732203962116	817.095272593740	128.744164225832	307.393558912228	919.395298440858	45.029553745731	267.384885297797	722.935195348155	1093.932606718794	200.143328576044	796.605820904113	842.589767991584	183.247610588270	891.892940319033	1088.606660496468	761.148854192138	1080.831914855867	910.352935883512	742.788935780022	
